PathFileType	4	(X/Y/Z)	/Users/niels/Desktop/University/Third Semester/Perception and Action/Exam/Gymnastics Motion Tracking/Code for Gym Tracking/Scripts/Analyzed Data/Start Salto/st_salto_good_id8_1_Sports2D/st_salto_good_id8_1_Sports2D_px_person00.trc
DataRate	CameraRate	NumFrames	NumMarkers	Units	OrigDataRate	OrigDataStartFrame	OrigNumFrames
156.22293616426876	156.22293616426876	11	22	m	156.22293616426876	291	467
Frame#	Time	Hip			RHip			RKnee			RAnkle			RBigToe			RSmallToe			RHeel			LHip			LKnee			LAnkle			LBigToe			LSmallToe			LHeel			Neck			Head			Nose			RShoulder			RElbow			RWrist			LShoulder			LElbow			LWrist		
		X1	Y1	Z1	X2	Y2	Z2	X3	Y3	Z3	X4	Y4	Z4	X5	Y5	Z5	X6	Y6	Z6	X7	Y7	Z7	X8	Y8	Z8	X9	Y9	Z9	X10	Y10	Z10	X11	Y11	Z11	X12	Y12	Z12	X13	Y13	Z13	X14	Y14	Z14	X15	Y15	Z15	X16	Y16	Z16	X17	Y17	Z17	X18	Y18	Z18	X19	Y19	Z19	X20	Y20	Z20	X21	Y21	Z21	X22	Y22	Z22
291	1.8627226394849785	1.1011506096294001	-0.3177932850283404	0.0	1.1007520381705593	-0.3159832120917442	0.0	1.0086828834986892	-0.24460343754688318	0.0	1.0846569940887172	-0.15206054576904512	0.0	1.0629722442222282	-0.10513686007043711	0.0	1.0734089998179173	-0.10766999225739544	0.0	1.0988869403684376	-0.15341506117194337	0.0	1.0994945659438167	-0.31812802252262473	0.0	1.0264722604410472	-0.25189303046487194	0.0	1.1145017704636446	-0.20677906566893006	0.0	1.1031022469119829	-0.16203895144123495	0.0	1.1159870237917648	-0.17183124486554074	0.0	1.1302186063728894	-0.20503286940102253	0.0	0.977235713825631	-0.41797595419391964	0.0	0.9033359829238105	-0.4358614978392388	0.0	0.9402278871845995	-0.39837014640380053	0.0	0.9980071482935865	-0.40767109546270397	0.0	1.016892015862885	-0.3197084139028966	0.0	0.9881077351276959	-0.274649906274337	0.0	0.9925523672716102	-0.4166273348070253	0.0	1.013944030841462	-0.3424486227421873	0.0	0.9898239776471333	-0.2894460762138888	0.0
292	1.869123748211731	1.108930958058451	-0.3220402689493541	0.0	1.1087654175548953	-0.31999304862284983	0.0	1.021064603605494	-0.24154840490397017	0.0	1.103148164834076	-0.15230991597258797	0.0	1.0842156251065638	-0.1040823552724914	0.0	1.0946312860756817	-0.10716106001246051	0.0	1.117510353865869	-0.15483920001011148	0.0	1.1072188501752078	-0.32228592067058587	0.0	1.0397187268008472	-0.24977960706884852	0.0	1.13172649156559	-0.21144771327681197	0.0	1.1245486228416703	-0.1669653174796023	0.0	1.1365943166138388	-0.17653250345464647	0.0	1.147581335745662	-0.2110578045366432	0.0	0.9780205339238223	-0.4141524529952376	0.0	0.9023265209855397	-0.4275240121852294	0.0	0.9420647031512225	-0.39170922135591135	0.0	0.999153244754485	-0.4049879920151867	0.0	1.0237458972799256	-0.3181112610735596	0.0	0.998218845727464	-0.2710326890432758	0.0	0.9930722568851118	-0.4137855134712639	0.0	1.0187583561241638	-0.3402464269502725	0.0	0.9979882981947447	-0.28585696472306593	0.0
293	1.8755248569384835	1.1164424147769905	-0.3263542528405543	0.0	1.1165178350267442	-0.3240667979367796	0.0	1.0336448423634088	-0.2389364074624568	0.0	1.1215215516122043	-0.15332671972067022	0.0	1.1054087724402253	-0.10394057329661267	0.0	1.1157722945333446	-0.10754866289758472	0.0	1.135964169864265	-0.1570337708127616	0.0	1.114719464677469	-0.3265146819760037	0.0	1.0532200539228638	-0.24821938486174785	0.0	1.1486907648781202	-0.2169270165379251	0.0	1.1457981761358493	-0.173022567112651	0.0	1.1569712005909434	-0.18229095699682338	0.0	1.164591541957469	-0.21788381799698436	0.0	0.9790485155685256	-0.41014739241692544	0.0	0.901825097948839	-0.41899723482914164	0.0	0.944283635514194	-0.3849686817625462	0.0	1.0004583612822957	-0.4021324979513837	0.0	1.0305953983081622	-0.31664071163767743	0.0	1.0083215510000736	-0.2677772247146407	0.0	0.9937842075491217	-0.4107627495748988	0.0	1.023639223058076	-0.33811437919389975	0.0	1.0062687676461908	-0.282622496036715	0.0
294	1.881925965665236	1.1236869324038046	-0.3307142725059518	0.0	1.1240129197190216	-0.3281815435828023	0.0	1.0463945501051872	-0.23677541026835874	0.0	1.1397333159776475	-0.15510447013078318	0.0	1.1264945797810606	-0.10469839968024633	0.0	1.1367753018215607	-0.10882177177626343	0.0	1.1542081519988963	-0.15998729422847113	0.0	1.122001536067604	-0.3307952024155923	0.0	1.0669443386147581	-0.2472341370912531	0.0	1.1653441619598777	-0.22318834324055417	0.0	1.1667541216987263	-0.18016347555718829	0.0	1.177034560723985	-0.18907071406547624	0.0	1.1812000390944097	-0.2254701863531628	0.0	0.9803292771885719	-0.40598611153625486	0.0	0.9018402703181885	-0.41032583010165175	0.0	0.9468837214654643	-0.37818062993471774	0.0	1.0019345591669617	-0.3991238178161424	0.0	1.0374251385591347	-0.3152921225692242	0.0	1.0183685810488643	-0.2648583659377075	0.0	0.9947021325968296	-0.4075796446077553	0.0	1.0285731557737108	-0.33604215731601045	0.0	1.0146114960065131	-0.27970839282748367	0.0
295	1.8883270743919887	1.1306689637308869	-0.33509999341916985	0.0	1.131256188436822	-0.3323158772012223	0.0	1.059283992411492	-0.23507136809195672	0.0	1.1577402740647569	-0.15763338679082212	0.0	1.1474163320539603	-0.10633956796845019	0.0	1.1575841485236729	-0.11096710469128468	0.0	1.1722023381508748	-0.1636849068884504	0.0	1.1290714168767755	-0.3351093743712818	0.0	1.080856934553747	-0.2468440308951517	0.0	1.1816393526798588	-0.2302004528763683	0.0	1.1873269189630056	-0.18833830002560684	0.0	1.1967062662893524	-0.19683219353066547	0.0	1.1973604627910372	-0.2337750647402327	0.0	0.9818705952963154	-0.4016947940723711	0.0	0.9023777260190762	-0.40155469477431205	0.0	0.9498610775409378	-0.3713770974704629	0.0	1.0035926421802759	-0.3959829389809302	0.0	1.044220688763727	-0.3140603556836586	0.0	1.0283162469990814	-0.2622470626184151	0.0	0.9958389179985028	-0.40425813308403075	0.0	1.033547978954595	-0.3340193610564876	0.0	1.0229653693131144	-0.27707584369139115	0.0
296	1.894728183118741	1.1373953934270096	-0.33949197228719963	0.0	1.1382547337435256	-0.3364500902259171	0.0	1.0722830907204093	-0.23382825926929315	0.0	1.1755004793755603	-0.16090050746930457	0.0	1.1681180708668684	-0.10884588174715981	0.0	1.178143882312864	-0.11396968533798389	0.0	1.1899079272458803	-0.16810853993507244	0.0	1.1359364718695255	-0.339441083747172	0.0	1.094920273021061	-0.24706721111695026	0.0	1.1975322261698953	-0.23792974460621216	0.0	1.207434507688335	-0.1974958064507085	0.0	1.2159131945984525	-0.20553305546917813	0.0	1.2130297042607252	-0.24275562039067053	0.0	0.9836786879310729	-0.3973001403010853	0.0	0.9034402676223163	-0.39272831304046585	0.0	0.9532094762759188	-0.3645898263211711	0.0	1.0054421569089553	-0.3927322343304091	0.0	1.0509687769087033	-0.31293947370925096	0.0	1.0381246936203337	-0.25991175612977235	0.0	0.9972067096758509	-0.400821296269531	0.0	1.038553085628769	-0.3320371713708066	0.0	1.031282565852909	-0.27468382697989685	0.0
297	1.9011292918454936	1.1438758926449366	-0.3438719752933454	0.0	1.1450174204042265	-0.3405661004166747	0.0	1.0853620250172245	-0.2330479887792576	0.0	1.1929742694671863	-0.16488999575060134	0.0	1.1885458299716916	-0.1121978658762742	0.0	1.1984018967436127	-0.11781279246771878	0.0	1.2072885454644047	-0.1732373248556414	0.0	1.1426052001145264	-0.3437766747295522	0.0	1.109094214295817	-0.24791924747402316	0.0	1.2129825199364557	-0.2463405944750734	0.0	1.2270026163502883	-0.2075830216082706	0.0	1.2345880529738575	-0.21512830927824347	0.0	1.2281687344848713	-0.25236814933923063	0.0	0.985758433846771	-0.3928289089701146	0.0	0.9050278742968275	-0.3838902114032605	0.0	0.9569209012004345	-0.3578498590206832	0.0	1.0074913052342955	-0.3893950597049122	0.0	1.0576577106710878	-0.31192249248564047	0.0	1.0477583614278347	-0.25781945543802276	0.0	0.9988171649483144	-0.39729269983101745	0.0	1.0435797802094626	-0.33008799919765347	0.0	1.039519234227401	-0.2724896403496574	0.0
298	1.907530400572246	1.1501230240661624	-0.3482231353032681	0.0	1.1515550329577071	-0.3446472303611253	0.0	1.098491637474535	-0.2327302729789066	0.0	1.2101249359001371	-0.16958339784339405	0.0	1.2086487018075553	-0.11637473780523769	0.0	1.2183087194826538	-0.12247754420187021	0.0	1.2243110446292533	-0.1790479086575511	0.0	1.149087155746074	-0.34810473414254467	0.0	1.1233365069970251	-0.24941270480442848	0.0	1.2279541925725772	-0.25539564672114645	0.0	1.2459650126648927	-0.21854449943039375	0.0	1.2526699631970597	-0.22556983683736004	0.0	1.2427431217482598	-0.2625682769361985	0.0	0.9881135401593476	-0.3883075230643771	0.0	0.9071378756342218	-0.37508269936579225	0.0	0.960985848477198	-0.351187250281968	0.0	1.0097469871466045	-0.38599536215599056	0.0	1.0642777990759362	-0.31100123277029196	0.0	1.0571863202435094	-0.2559361353305938	0.0	1.0006813926588698	-0.3936957980476796	0.0	1.048621237358349	-0.32816435662343324	0.0	1.047635911178615	-0.27044889616798257	0.0
299	1.9139315092989986	1.1561516899427509	-0.35253007745605625	0.0	1.1578802150657959	-0.3486781311065985	0.0	1.1116440315593437	-0.23287292366201987	0.0	1.2269192903847141	-0.1749599856552846	0.0	1.2283799653068241	-0.12135412821760586	0.0	1.2378190914150686	-0.12794266661141732	0.0	1.2409460982416525	-0.1855146080631895	0.0	1.1553925294995266	-0.3524157586531793	0.0	1.1376029015827651	-0.2515568511905707	0.0	1.2424153784504515	-0.2650563662228116	0.0	1.264263294628689	-0.23032255884876895	0.0	1.2701044160642414	-0.23680684759762005	0.0	1.2567232082017028	-0.2733116979371674	0.0	0.9907467927391874	-0.3837618406938728	0.0	0.9097653194985187	-0.36634649046023715	0.0	0.9653936609165963	-0.3446307692574958	0.0	1.0122153131348925	-0.3825569352879419	0.0	1.07082189226252	-0.31016606714671446	0.0	1.0663824092370706	-0.25422682004920194	0.0	1.0028094772722287	-0.39005383295037904	0.0	1.0536717280302825	-0.3262589527920724	0.0	1.0555975113984017	-0.2685186881357831	0.0
300	1.9203326180257512	1.1619783626349949	-0.35677910810522373	0.0	1.164007415197158	-0.352644978900902	0.0	1.1247934820730665	-0.2334726004587578	0.0	1.243328388672759	-0.18099720002859968	0.0	1.2476984749307831	-0.12711176104030358	0.0	1.2568934820130258	-0.13418438788921616	0.0	1.2571688284993086	-0.1926093451685444	0.0	1.1615317103182035	-0.3567019867113515	0.0	1.151846865457716	-0.25435742531035505	0.0	1.2563382115483432	-0.2752838053721331	0.0	1.2818466033291456	-0.2428586858325713	0.0	1.2868429909014538	-0.24878743185593663	0.0	1.2700841396319789	-0.2845553157846511	0.0	0.99366034673082	-0.3792169985150679	0.0	0.9129035276519041	-0.3577201357552696	0.0	0.9701332493791395	-0.33820754103193423	0.0	1.0149022993710983	-0.379102650550147	0.0	1.0772860783722158	-0.3094053386824557	0.0	1.0753252889006755	-0.2526559830583865	0.0	1.0052099442455875	-0.38638990502999576	0.0	1.0587255971736007	-0.32436534764344965	0.0	1.0633730856746997	-0.26666384914271135	0.0
301	1.9267337267525035	1.167620526133639	-0.3609583920536999	0.0	1.1699526341163287	-0.35653592004053114	0.0	1.1379168134404676	-0.23452555452378868	0.0	1.2593276910633426	-0.1876709634259823	0.0	1.2665690676418273	-0.1336213824520988	0.0	1.2754985876768419	-0.1411763025833253	0.0	1.2729589446567835	-0.20030152179903435	0.0	1.1675149918793888	-0.36095740040896646	0.0	1.1660194744113386	-0.2578165306875752	0.0	1.2696984714179567	-0.2860390682625627	0.0	1.2986713494618933	-0.25609460648600535	0.0	1.3028430844403263	-0.2614596614701806	0.0	1.2828056611060215	-0.29625798575056783	0.0	0.9968559202538624	-0.3746972734042993	0.0	0.9165445376574703	-0.34923970818085837	0.0	0.9751939643428599	-0.3319428882697881	0.0	1.0178141222639796	-0.37565438569827736	0.0	1.0836700584119754	-0.30870477405581864	0.0	1.083998340661208	-0.25118852314793116	0.0	1.0078895750334167	-0.38272664448093857	0.0	1.063776815654229	-0.32247756068595823	0.0	1.0709355763654596	-0.26485929424000476	0.0
